<svg xmlns="http://www.w3.org/2000/svg" width="54" height="54.663" viewBox="0 0 54 54.663"><defs><style>.a{fill:#707070;}.b{fill:none;stroke:#2e88ce;stroke-linecap:round;stroke-width:2px;}.c{fill:#2e88ce;}</style></defs><g transform="translate(-388.215 -426)"><g transform="translate(-1084 -3205)"><path class="a" d="M37.215,18.94A14.243,14.243,0,1,0,51.457,33.184,14.259,14.259,0,0,0,37.215,18.94Zm0,26.45A12.207,12.207,0,1,1,49.421,33.184,12.218,12.218,0,0,1,37.215,45.39ZM59.348,14.6H15.08a4.87,4.87,0,0,0-4.865,4.865V46.9a4.87,4.87,0,0,0,4.865,4.865h9.956V49.725H15.08A2.831,2.831,0,0,1,12.251,46.9V19.471a2.831,2.831,0,0,1,2.829-2.83H59.348a2.833,2.833,0,0,1,2.83,2.83V46.9a2.832,2.832,0,0,1-2.829,2.829H49.393v2.036h9.955A4.873,4.873,0,0,0,64.215,46.9V19.471A4.874,4.874,0,0,0,59.348,14.6Z" transform="translate(1462 3616.395)"/><line class="b" y2="17.55" transform="translate(1498.732 3667.113)"/><line class="b" y2="10.8" transform="translate(1505.482 3667.113)"/><line class="b" y2="10.8" transform="translate(1491.982 3667.113)"/><path class="c" d="M-2.932-7.344a5.941,5.941,0,0,1-2.084-.562A5.659,5.659,0,0,1-6.636-9.073l.5-.775a.5.5,0,0,1,.189-.17.531.531,0,0,1,.255-.066.687.687,0,0,1,.406.18q.227.18.558.411a5.457,5.457,0,0,0,.789.449,3.529,3.529,0,0,0,1.1.293l.35-5.018q-.661-.2-1.3-.45a4.421,4.421,0,0,1-1.143-.654,2.994,2.994,0,0,1-.813-1.014,3.393,3.393,0,0,1-.307-1.53,3.536,3.536,0,0,1,.269-1.35A3.507,3.507,0,0,1-5-19.938a4.072,4.072,0,0,1,1.271-.838A4.347,4.347,0,0,1-1.987-21.1l.095-1.38A.572.572,0,0,1-1.75-22.8a.415.415,0,0,1,.331-.142H-.8l-.132,1.871a4.828,4.828,0,0,1,1.71.51,5.8,5.8,0,0,1,1.285.936l-.406.624a.531.531,0,0,1-.435.283A.665.665,0,0,1,.9-18.84q-.194-.118-.468-.274A6.613,6.613,0,0,0-.2-19.426a3.2,3.2,0,0,0-.822-.222l-.312,4.574q.68.209,1.342.455a4.87,4.87,0,0,1,1.191.636,3.019,3.019,0,0,1,.855.972,2.952,2.952,0,0,1,.326,1.456,4.492,4.492,0,0,1-.283,1.6,3.872,3.872,0,0,1-.827,1.318,4.208,4.208,0,0,1-1.332.925,4.337,4.337,0,0,1-1.8.356l-.113,1.692a.537.537,0,0,1-.146.317.426.426,0,0,1-.326.137h-.624ZM.782-11.3a1.758,1.758,0,0,0-.175-.813A1.82,1.82,0,0,0,.13-12.7a3.11,3.11,0,0,0-.709-.425,9.274,9.274,0,0,0-.869-.331l-.321,4.706A3.447,3.447,0,0,0-.678-9.021a2.6,2.6,0,0,0,.8-.543,2.177,2.177,0,0,0,.491-.77A2.73,2.73,0,0,0,.782-11.3Zm-5.245-6.275a1.809,1.809,0,0,0,.161.789,1.883,1.883,0,0,0,.444.591,2.962,2.962,0,0,0,.661.444,6.576,6.576,0,0,0,.822.34l.284-4.262a3.591,3.591,0,0,0-1.063.246,2.321,2.321,0,0,0-.737.472,1.857,1.857,0,0,0-.43.638A1.979,1.979,0,0,0-4.462-17.578Z" transform="translate(1501.227 3663.698)"/></g></g></svg>